<svg width="71" height="36" viewBox="0 0 71 36" fill="none" xmlns="http://www.w3.org/2000/svg">
<path d="M10.3203 24.2422L10.9766 28.7422L11.9375 24.6875L18.6875 0.875H22.4844L29.0703 24.6875L30.0078 28.8125L30.7344 24.2188L36.0312 0.875H40.5547L32.2812 35H28.1797L21.1484 10.1328L20.6094 7.53125L20.0703 10.1328L12.7812 35H8.67969L0.429688 0.875H4.92969L10.3203 24.2422ZM58.025 19.7891C54.1656 18.6797 51.3531 17.3203 49.5875 15.7109C47.8375 14.0859 46.9625 12.0859 46.9625 9.71094C46.9625 7.02344 48.0328 4.80469 50.1734 3.05469C52.3297 1.28906 55.1266 0.40625 58.5641 0.40625C60.9078 0.40625 62.9938 0.859375 64.8219 1.76562C66.6656 2.67188 68.0875 3.92188 69.0875 5.51562C70.1031 7.10938 70.6109 8.85156 70.6109 10.7422H66.0875C66.0875 8.67969 65.4313 7.0625 64.1188 5.89062C62.8063 4.70312 60.9547 4.10938 58.5641 4.10938C56.3453 4.10938 54.6109 4.60156 53.3609 5.58594C52.1266 6.55469 51.5094 7.90625 51.5094 9.64062C51.5094 11.0312 52.0953 12.2109 53.2672 13.1797C54.4547 14.1328 56.4625 15.0078 59.2906 15.8047C62.1344 16.6016 64.3531 17.4844 65.9469 18.4531C67.5563 19.4062 68.7438 20.5234 69.5094 21.8047C70.2906 23.0859 70.6813 24.5938 70.6813 26.3281C70.6813 29.0938 69.6031 31.3125 67.4469 32.9844C65.2906 34.6406 62.4078 35.4688 58.7984 35.4688C56.4547 35.4688 54.2672 35.0234 52.2359 34.1328C50.2047 33.2266 48.6344 31.9922 47.525 30.4297C46.4313 28.8672 45.8844 27.0938 45.8844 25.1094H50.4078C50.4078 27.1719 51.1656 28.8047 52.6813 30.0078C54.2125 31.1953 56.2516 31.7891 58.7984 31.7891C61.1734 31.7891 62.9938 31.3047 64.2594 30.3359C65.525 29.3672 66.1578 28.0469 66.1578 26.375C66.1578 24.7031 65.5719 23.4141 64.4 22.5078C63.2281 21.5859 61.1031 20.6797 58.025 19.7891Z" fill="url(#paint0_linear)"/>
<defs>
<linearGradient id="paint0_linear" x1="2.17597" y1="35" x2="70.9356" y2="35" gradientUnits="userSpaceOnUse">
<stop stop-color="#C52135"/>
<stop offset="0.859375" stop-color="#FF5C32"/>
</linearGradient>
</defs>
</svg>
