<svg width="229" height="46" viewBox="0 0 229 46" fill="none" xmlns="http://www.w3.org/2000/svg">
<path d="M10.3203 25.2422L10.9766 29.7422L11.9375 25.6875L18.6875 1.875H22.4844L29.0703 25.6875L30.0078 29.8125L30.7344 25.2188L36.0312 1.875H40.5547L32.2812 36H28.1797L21.1484 11.1328L20.6094 8.53125L20.0703 11.1328L12.7812 36H8.67969L0.429688 1.875H4.92969L10.3203 25.2422ZM45.3922 23.0859C45.3922 20.6016 45.8766 18.3672 46.8453 16.3828C47.8297 14.3984 49.1891 12.8672 50.9234 11.7891C52.6734 10.7109 54.6656 10.1719 56.9 10.1719C60.3531 10.1719 63.1422 11.3672 65.2672 13.7578C67.4078 16.1484 68.4781 19.3281 68.4781 23.2969V23.6016C68.4781 26.0703 68.0016 28.2891 67.0484 30.2578C66.1109 32.2109 64.7594 33.7344 62.9938 34.8281C61.2438 35.9219 59.2281 36.4688 56.9469 36.4688C53.5094 36.4688 50.7203 35.2734 48.5797 32.8828C46.4547 30.4922 45.3922 27.3281 45.3922 23.3906V23.0859ZM49.7516 23.6016C49.7516 26.4141 50.4 28.6719 51.6969 30.375C53.0094 32.0781 54.7594 32.9297 56.9469 32.9297C59.15 32.9297 60.9 32.0703 62.1969 30.3516C63.4938 28.6172 64.1422 26.1953 64.1422 23.0859C64.1422 20.3047 63.4781 18.0547 62.15 16.3359C60.8375 14.6016 59.0875 13.7344 56.9 13.7344C54.7594 13.7344 53.0328 14.5859 51.7203 16.2891C50.4078 17.9922 49.7516 20.4297 49.7516 23.6016ZM88.5734 14.5312C87.9172 14.4219 87.2063 14.3672 86.4406 14.3672C83.5969 14.3672 81.6672 15.5781 80.6516 18V36H76.3156V10.6406H80.5344L80.6047 13.5703C82.0266 11.3047 84.0422 10.1719 86.6516 10.1719C87.4953 10.1719 88.1359 10.2812 88.5734 10.5V14.5312ZM102.059 24.2578L99.3406 27.0938V36H95.0047V0H99.3406V21.7734L101.661 18.9844L109.559 10.6406H114.833L104.966 21.2344L115.981 36H110.895L102.059 24.2578Z" fill="white"/>
<path d="M136.475 29.2734C136.475 28.1016 136.03 27.1953 135.139 26.5547C134.264 25.8984 132.725 25.3359 130.522 24.8672C128.334 24.3984 126.592 23.8359 125.295 23.1797C124.014 22.5234 123.061 21.7422 122.436 20.8359C121.827 19.9297 121.522 18.8516 121.522 17.6016C121.522 15.5234 122.397 13.7656 124.147 12.3281C125.912 10.8906 128.162 10.1719 130.897 10.1719C133.772 10.1719 136.1 10.9141 137.881 12.3984C139.678 13.8828 140.577 15.7812 140.577 18.0938H136.217C136.217 16.9062 135.709 15.8828 134.694 15.0234C133.694 14.1641 132.428 13.7344 130.897 13.7344C129.319 13.7344 128.084 14.0781 127.194 14.7656C126.303 15.4531 125.858 16.3516 125.858 17.4609C125.858 18.5078 126.272 19.2969 127.1 19.8281C127.928 20.3594 129.42 20.8672 131.577 21.3516C133.748 21.8359 135.506 22.4141 136.85 23.0859C138.194 23.7578 139.186 24.5703 139.827 25.5234C140.483 26.4609 140.811 27.6094 140.811 28.9688C140.811 31.2344 139.905 33.0547 138.092 34.4297C136.28 35.7891 133.928 36.4688 131.037 36.4688C129.006 36.4688 127.209 36.1094 125.647 35.3906C124.084 34.6719 122.858 33.6719 121.967 32.3906C121.092 31.0938 120.655 29.6953 120.655 28.1953H124.991C125.069 29.6484 125.647 30.8047 126.725 31.6641C127.819 32.5078 129.256 32.9297 131.037 32.9297C132.678 32.9297 133.991 32.6016 134.975 31.9453C135.975 31.2734 136.475 30.3828 136.475 29.2734ZM153.195 13.7109C155.117 11.3516 157.617 10.1719 160.695 10.1719C166.055 10.1719 168.758 13.1953 168.805 19.2422V36H164.469V19.2188C164.453 17.3906 164.031 16.0391 163.203 15.1641C162.391 14.2891 161.117 13.8516 159.383 13.8516C157.977 13.8516 156.742 14.2266 155.68 14.9766C154.617 15.7266 153.789 16.7109 153.195 17.9297V36H148.859V0H153.195V13.7109ZM176.548 23.0859C176.548 20.6016 177.033 18.3672 178.002 16.3828C178.986 14.3984 180.345 12.8672 182.08 11.7891C183.83 10.7109 185.822 10.1719 188.056 10.1719C191.509 10.1719 194.298 11.3672 196.423 13.7578C198.564 16.1484 199.634 19.3281 199.634 23.2969V23.6016C199.634 26.0703 199.158 28.2891 198.205 30.2578C197.267 32.2109 195.916 33.7344 194.15 34.8281C192.4 35.9219 190.384 36.4688 188.103 36.4688C184.666 36.4688 181.877 35.2734 179.736 32.8828C177.611 30.4922 176.548 27.3281 176.548 23.3906V23.0859ZM180.908 23.6016C180.908 26.4141 181.556 28.6719 182.853 30.375C184.166 32.0781 185.916 32.9297 188.103 32.9297C190.306 32.9297 192.056 32.0703 193.353 30.3516C194.65 28.6172 195.298 26.1953 195.298 23.0859C195.298 20.3047 194.634 18.0547 193.306 16.3359C191.994 14.6016 190.244 13.7344 188.056 13.7344C185.916 13.7344 184.189 14.5859 182.877 16.2891C181.564 17.9922 180.908 20.4297 180.908 23.6016ZM228.894 23.6016C228.894 27.4609 228.011 30.5703 226.245 32.9297C224.48 35.2891 222.089 36.4688 219.073 36.4688C215.995 36.4688 213.573 35.4922 211.808 33.5391V45.75H207.472V10.6406H211.433L211.644 13.4531C213.409 11.2656 215.863 10.1719 219.003 10.1719C222.05 10.1719 224.456 11.3203 226.222 13.6172C228.003 15.9141 228.894 19.1094 228.894 23.2031V23.6016ZM224.558 23.1094C224.558 20.25 223.948 17.9922 222.73 16.3359C221.511 14.6797 219.839 13.8516 217.714 13.8516C215.089 13.8516 213.12 15.0156 211.808 17.3438V29.4609C213.105 31.7734 215.089 32.9297 217.761 32.9297C219.839 32.9297 221.488 32.1094 222.706 30.4688C223.941 28.8125 224.558 26.3594 224.558 23.1094Z" fill="#EA4B2E"/>
</svg>
